<svg xmlns="http://www.w3.org/2000/svg" enable-background="new 0 0 62 62" viewBox="0 0 62 62"><path d="M17.5 18.4c.5.2 1.1.1 1.6-.2 0 0 .1 0 .1-.1.3-.2.6-.3.9-.2.3.1.6.3.7.6l1.6 3c.3-.3.6-.5 1-.7s.8-.4 1.2-.5l-1.6-3c-.1-.3-.2-.6 0-.9.1-.3.3-.5.6-.6 0 0 .1 0 .1-.1 1-.6 1.4-1.9.9-3-.3-.5-.7-.9-1.3-1.1-.5-.2-1.1-.1-1.6.2-.6.3-1 1-1.1 1.7 0 .3-.3.6-.6.8-.3.2-.7.2-1 0-.6-.3-1.3-.3-1.9 0-1.1.6-1.4 1.9-.9 3C16.5 17.9 17 18.3 17.5 18.4zM22.5 24.8l-1.4 2.7c3.1.6 6.2 1.8 8.8 3.4 1.5-1.2 3.6-2.5 6.1-3.4l-2.4-2c-2.7-2.2-5.3-3.4-7.4-3.3l0 0c-.7 0-1.3.2-1.8.5C23.6 23.1 23 23.8 22.5 24.8zM60.6 51.2H13.2c-.4 0-.8.2-1 .6-.2.4-.1.8.1 1.1l1.4 1.8c.8 1.1 2.1 1.7 3.4 1.7h39.6c1.3 0 2.6-.6 3.4-1.7l1.4-1.8c.2-.3.3-.7.1-1.1C61.4 51.4 61.1 51.2 60.6 51.2z"/><path d="M14.4 44.5c0 .3-.2.5-.4.7-1.9 1.5-1.7 2.5-.9 3.9.1 0 .1 0 .2 0h47.4l1.1-3.1c1.1-4.8 0-11.5-11-15.8-8.6-3.4-14.9-.9-19 2.2 3.4 2.8 4.7 6.2 3.7 10.1-.1.5-.6.8-1 .8-.1 0-.2 0-.2 0-.6-.1-.9-.7-.8-1.3.8-3.5-.6-6.3-4.2-8.8-4.4-2.9-10.8-4.5-14.9-3.6-.9.2-1.6.5-2.2.8 0 0 0 0-.1 0-.6.4-1 .8-1.4 1.3-1.7 2.5-.3 7.3 3.4 12C14.3 43.9 14.4 44.2 14.4 44.5zM6.4 26.8c0-.3 0-.6.2-.8l.1-.1c.7-1 .4-2.4-.6-3.1-.5-.3-1-.4-1.5-.3-.6.1-1 .5-1.3 1-.4.6-.5 1.4-.2 2 .1.3.1.7-.1 1C2.8 26.8 2.5 27 2.2 27c-.7 0-1.3.4-1.7 1C-.3 29 0 30.3 1 31c.5.3 1 .4 1.6.3s1-.5 1.3-1L4 30.2c.1-.3.4-.5.7-.6s.6 0 .9.1l2.8 1.9c.1-.4.3-.8.5-1.1.2-.4.5-.7.8-1l-2.8-1.9C6.6 27.4 6.4 27.1 6.4 26.8zM40.8 23.3c.1 0 .2.1.4.1.4 0 .8-.3 1-.7.2-.6-.1-1.2-.6-1.4-.5-.2-.8-.6-1-1-.2-.5-.1-1.1.2-1.5.3-.5.8-.8 1.4-1.2.5-.3 1-.6 1.4-1.1 1.1-1.1 1.7-2.7 1.5-4.3S44 9.1 42.7 8.3c-.5-.3-1.2-.1-1.5.4s-.1 1.2.4 1.5c.8.5 1.3 1.3 1.4 2.3.1.9-.3 1.9-.9 2.6-.3.3-.7.5-1.1.8-.7.5-1.5 1-2 1.8-.6 1-.8 2.2-.4 3.3C38.9 22 39.7 22.9 40.8 23.3zM50.2 19.6c.2.1.3.1.5.1.4 0 .7-.2.9-.6.3-.5.1-1.2-.4-1.4-.7-.4-1.2-1.1-1.3-1.9-.1-.8.2-1.7.8-2.2.3-.3.7-.6 1.2-.8.7-.4 1.4-.8 2-1.6 1.2-1.6.9-4.2-.8-5.5C52.7 5.4 52 5.5 51.7 6c-.4.5-.3 1.1.2 1.5.7.5.9 1.8.3 2.5-.3.4-.8.7-1.4 1-.5.3-1.1.6-1.6 1.1-1 1-1.6 2.5-1.4 4C48.1 17.6 49 18.9 50.2 19.6zM56.8 25.9c.2.1.4.2.6.2.3 0 .7-.2.9-.5.3-.5.2-1.1-.3-1.5-.7-.5-1.2-1.4-1.2-2.3s.5-1.8 1.2-2.3c.2-.2.5-.3.8-.4.5-.2 1-.5 1.4-.9 1.1-.9 1.5-2.5 1.1-3.9s-1.6-2.5-3-2.7c-.6-.1-1.1.3-1.2.9-.1.6.3 1.1.9 1.2.6.1 1.1.6 1.3 1.2.2.6-.1 1.3-.5 1.8-.2.2-.6.4-1 .6-.3.2-.7.3-1 .6-1.3.9-2.1 2.5-2.1 4.1C54.7 23.5 55.5 25.1 56.8 25.9z"/></svg>