<svg xmlns="http://www.w3.org/2000/svg" data-name="Layer 1" viewBox="0 0 64 64"><path fill="#2f4159" d="M30.05 21.46H10.37a10 10 0 0 1 19.68 0zM24.77 10A12.23 12.23 0 0 0 25 12.18a12 12 0 0 0-4.78-1 12.16 12.16 0 0 0-3.74.61 10 10 0 0 1 10-9.43 7 7 0 0 1 1 .08A12 12 0 0 0 24.77 10zM46.84 10c0 .26 0 .52 0 .77a11.6 11.6 0 0 0-2.73-.32 12.08 12.08 0 0 0-12 10.71 12 12 0 0 0-4.52-7.46A10 10 0 1 1 46.84 10z"/><path fill="#2f4159" d="M54 21.46H34.13a10 10 0 0 1 19.89 0zM41.47 64H22.52L30 57a1.06 1.06 0 0 0 .33-.75V49q.83.06 1.68.06c.57 0 1.13 0 1.69-.06v7.23A1.05 1.05 0 0 0 34 57zM56.22 23.53A24.45 24.45 0 0 1 34.73 46.84h0a22.78 22.78 0 0 1-5.39 0h0A24.43 24.43 0 0 1 7.78 23.53z"/></svg>