<svg xmlns="http://www.w3.org/2000/svg" data-name="Layer 1" viewBox="0 0 512 512"><path fill="#1e1f27" d="M504.5,251.16992H471.90466a75.409,75.409,0,0,0-5.60534-16.34326c-3.26953-7.42578-5.63184-12.7915-3.79493-21.38965,1.86084-8.71142,7.00782-14.25195,11.98584-19.60986,5.84034-6.28662,12.45948-13.41211,11.24512-24.44336-1.16894-10.67774-8.50879-15.5127-14.98437-19.77881-5.15186-3.394-10.01807-6.6001-13.44971-13.00635-6.14551-11.47217-2.17969-23.80322,1.65527-35.728,3.88721-12.08594,7.90674-24.584-.38574-34.70459C453.583,60.0791,444.76855,56.49561,433.752,56.07568c-15.05468-.57226-36.18066,5.064-49.45459,18.95313-8.68506,9.09033-11.17334,18.76172-13.36914,27.29443-2.27,8.82276-4.063,15.791-11.94922,22.17969-5.36914,4.34961-9.78662,5.35254-14.46338,6.41406-5.79248,1.31494-12.35839,2.80518-17.918,10.29346-7.96778,10.73535-5.03223,22.00732-2.4419,31.95215,2.229,8.55908,4.53418,17.40918,1.55274,27.84619-.24225.84778-.5138,1.65082-.79993,2.43542a52.00166,52.00166,0,0,0-9.93836-.96423c-.57818,0-1.15008.0354-1.725.0542a7.55138,7.55138,0,0,0-.37067-.78125c-6.03076-10.915-14.09082-15.36035-20.56738-18.93164-5.82959-3.21484-10.04151-5.5376-13.08838-11.814-3.23828-6.67773-2.63672-12.72851-2-19.13476.75244-7.56983,1.689-16.99072-6.31494-24.57129-5.51465-5.21582-11.167-5.61816-15.7085-5.94141-3.62011-.25732-6.74658-.48-11.00195-2.86914-6.18848-3.47607-8.16113-7.8374-10.89111-13.874C230.521,98.46826,227.36865,91.499,219.3501,85.583c-14.60382-10.76459-39.35034-12.39038-52.60694-4.29846a52.45855,52.45855,0,0,0-6.97412-.80506c-4.78515-.33056-9.30468-.64209-15.27978-4.11377-8.771-5.09765-11.61328-11.70508-15.21192-20.0708-3.48291-8.0957-7.43017-17.272-17.417-24.91894C96.60791,19.69434,74.86572,17.37451,60.08008,20.25879c-10.81836,2.11035-18.97363,7.00683-22.96289,13.78564-6.63916,11.27491-.74561,23.00733,4.9541,34.353,5.623,11.19385,11.4375,22.769,7.13232,35.04736-2.40771,6.854-6.72216,10.771-11.29,14.918-5.74365,5.21436-12.2539,11.124-11.76611,21.85108.49463,11.08838,8.1294,17.10693,14.86572,22.417,5.74366,4.52734,11.68213,9.209,14.86084,17.53613,3.13819,8.21387,1.6294,13.88135-.458,21.72559-1.666,6.2583-3.55372,13.352-2.981,22.3833a66.71875,66.71875,0,0,0,8.14239,26.894H7.5a7.50006,7.50006,0,0,0-7.5,7.5c0,83.99542,55.10052,155.35254,131.0498,179.85633V459.9502A52.10907,52.10907,0,0,0,183.1001,512H328.8999a52.10907,52.10907,0,0,0,52.0503-52.0498V438.60681A189.19126,189.19126,0,0,0,512,258.66992,7.50006,7.50006,0,0,0,504.5,251.16992ZM338.6416,150.15137c2.14063-2.8833,4.03418-3.43506,9.19434-4.60645,5.27636-1.19775,12.502-2.83789,20.58545-9.38721,11.73584-9.50683,14.55029-20.44531,17.03369-30.09619,1.98974-7.7334,3.70849-14.41162,9.687-20.66992,8.56592-8.96289,24.19922-14.85644,38.03857-14.32666,6.4712.24658,11.62549,1.96973,13.78809,4.6084,2.90381,3.544,1.07129,10.14844-2.2915,20.605-4.34424,13.50732-9.75049,30.31738-.59864,47.40283,5.22657,9.7583,12.54248,14.57764,18.4209,18.4502,5.86963,3.8667,7.95654,5.52,8.3252,8.88965.42187,3.83252-1.79,6.63964-7.32422,12.59668-5.76514,6.20605-12.93994,13.9292-15.665,26.68554-2.8501,13.33936,1.18017,22.49219,4.73584,30.56787a75.41045,75.41045,0,0,1,3.93939,10.29883H399.66327q1.455-4.60738,2.84851-9.22943l25.00287-14.05231A7.5,7.5,0,0,0,420.165,214.812l-11.87866,6.67615c4.958-18.71722,9.13989-37.77722,12.42364-56.82819a7.4992,7.4992,0,1,0-14.78-2.55c-2.22888,12.93219-4.88788,25.86761-7.921,38.694l-7.37127-17.907a7.50018,7.50018,0,0,0-13.8711,5.71l15.00653,36.45526c-.309,1.11194-.60852,2.22883-.92315,3.33777q-.90885,3.20307-1.85871,6.39667c-.01123.03864-.023.077-.03363.11578q-2.40948,8.155-5.04529,16.25751H366.83167a52.04075,52.04075,0,0,0-27.775-42.74927c.38465-1.06738.74988-2.15454,1.07465-3.29077,4.10693-14.37549,1.02-26.22607-1.46-35.748C336.23,160.0083,335.12012,154.896,338.6416,150.15137ZM314.97021,217.48a37.01455,37.01455,0,0,1,36.81623,33.68994H291.83118a51.79313,51.79313,0,0,0-5.462-20.137A36.80768,36.80768,0,0,1,314.97021,217.48ZM210.44727,97.65527c4.86718,3.59082,6.77392,7.80664,9.188,13.14356,2.999,6.63037,6.73145,14.88232,17.21338,20.771a37.545,37.545,0,0,0,17.28174,4.75245c3.76172.26757,4.91553.41015,6.4624,1.873,2.44287,2.314,2.41162,5.02783,1.69922,12.19385-.73828,7.42822-1.65722,16.67334,3.43115,27.166,5.12842,10.56347,12.67872,14.72753,19.34034,18.40087,4.71161,2.59839,8.89746,4.91022,12.41919,9.55573a51.62915,51.62915,0,0,0-20.01233,12.95538A51.72415,51.72415,0,0,0,239.97021,202.48c-.524,0-1.04229.02417-1.56262.03967a62.302,62.302,0,0,0-5.222-13.70471c-7.50147-14.24316-17.30225-19.83887-25.94922-24.77539-7.70654-4.3999-13.79346-7.875-18.09766-17.19434-4.55273-9.85693-3.63867-18.95556-2.75439-27.75537.89746-8.93054,1.8985-18.90167-4.20948-27.53357C190.65222,90.27979,202.53571,91.82379,210.44727,97.65527Zm66.33117,153.51465H203.1535a36.95458,36.95458,0,0,1,73.62494,0ZM50.29932,150.85059c-6.37989-5.02881-8.99512-7.45948-9.167-11.31153-.1538-3.38525,1.65479-5.34179,6.86377-10.07031,5.21-4.73,11.69385-10.61621,15.36133-21.05713,6.41309-18.28955-1.51367-34.06885-7.88232-46.74756C50.544,51.84863,47.71826,45.60352,50.044,41.65381c1.72949-2.939,6.55468-5.4336,12.9082-6.67285,13.583-2.64844,29.94482.76465,39.78808,8.30371,6.87647,5.26562,9.60206,11.60156,12.75782,18.938,3.937,9.15136,8.39892,19.52392,21.45459,27.1123,8.9956,5.22656,16.38672,5.73633,21.78369,6.10889,5.27783.36377,7.23291.61816,9.79,3.13867,4.21093,4.14893,3.90136,9.37109,2.9331,19.00781-.98388,9.78906-2.208,21.97168,4.06153,35.54444,6.3164,13.67675,15.85888,19.12451,24.27832,23.93115,7.86132,4.48828,14.65039,8.36426,20.11377,18.73779a47.031,47.031,0,0,1,3.67962,9.33551,52.07157,52.07157,0,0,0-35.47961,46.0307H164.33563q-6.65561-10.69363-12.84515-21.6524l9.24634-38.43647a7.50007,7.50007,0,0,0-14.584-3.50878l-5.33325,22.17q-7.9433-15.41931-14.98694-31.3526l8.35779-28.98242a7.50019,7.50019,0,1,0-14.41309-4.15625L116.595,156.28656Q109.683,138.75513,103.92,120.85a7.49979,7.49979,0,1,0-14.28,4.59c6.12684,19.05115,13.24585,37.86566,21.26917,56.26642q.08257.20691.17712.40808c.1767.40436.34949.81049.527,1.21448L96.9082,177.83154a7.49984,7.49984,0,0,0-5.25293,14.04981l28.88086,10.797q3.5484,7.35471,7.28388,14.60163,2.497,4.83582,5.09619,9.63061l-17.79169-6.6513a7.49984,7.49984,0,1,0-5.25293,14.0498L144.40173,247.218c.781,1.3208,1.57178,2.63592,2.36115,3.9519H78.093c-6.36231-9.40539-10.13684-19.18164-10.68823-27.84472-.41749-6.58741,1.00244-11.92432,2.50634-17.57471,2.27-8.52881,4.84278-18.19531-.02441-30.93457C65.23291,162.62256,56.95264,156.09521,50.29932,150.85059ZM365.9502,459.9502A37.092,37.092,0,0,1,328.8999,497H183.1001a37.092,37.092,0,0,1-37.0503-37.0498V442.69653a188.82055,188.82055,0,0,0,42.89014,4.91333H323.06006a190.39063,190.39063,0,0,0,42.89014-4.87292ZM446.05762,381.666a173.07267,173.07267,0,0,1-74.17188,44.02,7.424,7.424,0,0,0-.94818.27459,174.7036,174.7036,0,0,1-47.8775,6.64923H188.93994c-93.39941,0-169.84131-73.99267-173.78027-166.43994H74.20728l.00854.00049.00629-.00049h121.459l.01032.00049.01043-.00049h88.595c.00739-.00006.01477.00006.02216,0h74.91968l.01037.00049.01032-.00049H496.84229A172.70473,172.70473,0,0,1,446.05762,381.666Z"/></svg>